<?xml version="1.0" standalone="no"?>
<!DOCTYPE svg PUBLIC "-//W3C//DTD SVG 20010904//EN"
 "http://www.w3.org/TR/2001/REC-SVG-20010904/DTD/svg10.dtd">
<svg version="1.0" xmlns="http://www.w3.org/2000/svg"
 width="300.000000pt" height="86.000000pt" viewBox="0 0 300.000000 86.000000"
 preserveAspectRatio="xMidYMid meet">

<g transform="translate(0.000000,86.000000) scale(0.100000,-0.100000)"
fill="#000000" stroke="none">
<path d="M29 831 l-29 -29 0 -372 0 -372 29 -29 30 -29 1446 2 1447 3 24 28
24 28 0 370 0 371 -29 29 -29 29 -1442 0 -1442 0 -29 -29z m591 -101 c0 -47
-63 -120 -103 -120 -31 0 -15 58 28 98 33 31 75 43 75 22z m423 -11 c30 -16
37 -28 37 -66 0 -46 -30 -73 -80 -73 l-40 0 0 68 c0 38 3 72 7 75 10 11 52 8
76 -4z m537 -64 c0 -60 -3 -75 -15 -75 -12 0 -15 15 -15 75 0 60 3 75 15 75
12 0 15 -15 15 -75z m390 0 c0 -75 0 -75 -27 -76 -63 -3 -76 6 -76 52 0 35 27
63 56 55 13 -3 17 2 17 20 0 15 6 24 15 24 12 0 15 -15 15 -75z m540 49 c0
-21 3 -24 20 -19 32 10 50 -12 50 -61 0 -24 -4 -44 -10 -44 -5 0 -10 12 -10
26 0 14 -5 34 -11 45 -15 29 -39 6 -39 -37 0 -19 -4 -34 -10 -34 -6 0 -10 32
-10 75 0 43 4 75 10 75 6 0 10 -12 10 -26z m-68 -14 c19 -17 19 -20 5 -20 -13
0 -17 -9 -17 -35 0 -19 5 -35 10 -35 6 0 10 -4 10 -10 0 -21 -40 -10 -44 13
-13 64 -14 85 -3 96 14 14 14 14 39 -9z m-1250 -12 c30 -24 31 -56 4 -83 -25
-25 -44 -25 -73 -2 -21 16 -15 64 9 81 27 19 39 20 60 4z m76 -14 c7 -44 14
-49 26 -17 6 18 16 33 21 33 6 0 15 -15 21 -33 l11 -32 12 38 c7 20 17 37 22
37 12 0 11 -9 -7 -63 -19 -55 -39 -61 -50 -14 l-7 32 -14 -32 c-22 -54 -39
-40 -58 46 -5 26 -4 32 6 29 8 -3 15 -13 17 -24z m230 13 c14 -11 17 -97 3
-97 -6 0 -11 19 -13 43 -2 29 -8 42 -18 42 -10 0 -16 -13 -18 -42 -2 -29 -8
-43 -18 -43 -10 0 -14 14 -14 53 l0 54 33 0 c17 0 38 -4 45 -10z m200 -3 c42
-29 19 -96 -33 -96 -51 0 -72 55 -35 92 24 24 38 25 68 4z m120 4 c7 -7 12
-31 12 -54 0 -39 -2 -42 -31 -46 -61 -9 -74 53 -14 68 27 7 24 26 -3 23 -30
-3 -37 1 -22 11 20 13 44 12 58 -2z m330 -4 c42 -29 19 -96 -32 -96 -15 0 -32
4 -38 10 -18 18 -13 73 7 88 24 18 36 18 63 -2z m142 -4 c16 -25 12 -90 -4
-90 -10 0 -16 14 -18 43 -2 29 -8 42 -18 42 -10 0 -16 -13 -18 -42 -2 -29 -8
-43 -18 -43 -10 0 -14 13 -14 48 0 27 2 51 5 54 11 11 77 1 85 -12z m405 4
c25 -26 15 -49 -23 -49 -38 0 -37 -19 1 -23 39 -5 33 -22 -8 -22 -53 0 -73 52
-35 90 24 24 43 25 65 4z m-2185 -84 c25 0 71 2 102 3 48 2 60 -2 82 -22 l26
-25 -27 -28 c-24 -25 -28 -38 -28 -83 0 -48 4 -58 34 -89 35 -36 35 -36 19
-70 -9 -18 -31 -50 -48 -70 -35 -39 -57 -44 -119 -25 -29 9 -48 8 -86 -4 -60
-17 -84 -10 -118 35 -50 67 -70 120 -74 198 -5 89 12 131 67 168 29 19 43 22
80 17 25 -3 65 -6 90 -5z m1433 -129 c4 -4 5 -14 2 -22 -4 -10 -18 -13 -48
-11 -31 3 -47 -1 -57 -13 -19 -23 -4 -43 51 -72 24 -13 50 -31 57 -40 21 -28
15 -81 -13 -109 -22 -22 -32 -25 -88 -22 -56 3 -62 5 -65 26 -3 21 -1 22 37
16 63 -10 91 1 91 36 0 25 -7 33 -49 55 -77 38 -99 84 -66 133 26 36 118 50
148 23z m-836 -36 c8 -22 29 -88 47 -147 l34 -108 -28 0 c-24 0 -29 5 -39 45
l-11 45 -49 0 -48 0 -13 -45 c-10 -37 -17 -45 -36 -45 -13 0 -24 6 -24 12 0 7
21 75 46 151 l46 138 31 -3 c25 -3 32 -9 44 -43z m963 -10 c0 -20 5 -25 25
-25 18 0 25 -5 25 -20 0 -15 -7 -20 -25 -20 -26 0 -26 -1 -23 -67 3 -62 5 -68
26 -71 14 -2 22 -10 22 -23 0 -15 -7 -19 -34 -19 -50 0 -66 28 -66 112 0 54
-3 68 -15 68 -8 0 -15 9 -15 20 0 11 7 20 15 20 8 0 15 9 15 19 0 17 12 25 43
30 4 0 7 -10 7 -24z m-800 -41 c0 -14 2 -14 22 0 34 24 85 20 113 -8 45 -45
41 -147 -8 -181 -26 -18 -88 -20 -105 -3 -9 9 -12 -1 -12 -45 0 -54 -1 -57
-25 -57 l-25 0 0 155 c0 148 1 155 20 155 11 0 20 -7 20 -16z m250 0 c0 -14 2
-14 22 0 29 20 77 20 105 1 13 -9 27 -33 33 -54 22 -81 -19 -151 -88 -151 -21
0 -43 5 -50 12 -9 9 -12 -1 -12 -45 0 -54 -1 -57 -25 -57 l-25 0 0 155 c0 148
1 155 20 155 11 0 20 -7 20 -16z m807 -8 c25 -22 28 -31 28 -86 0 -55 -3 -64
-28 -86 -42 -36 -109 -34 -148 5 -23 23 -29 38 -29 71 0 46 21 94 47 109 34
20 100 13 130 -13z m113 9 c0 -8 3 -15 6 -15 3 0 12 7 20 15 9 8 24 15 35 15
28 0 22 -43 -6 -48 -34 -6 -45 -32 -45 -104 0 -66 -1 -68 -25 -68 l-25 0 0
110 c0 103 1 110 20 110 11 0 20 -7 20 -15z m265 -10 c17 -16 25 -35 25 -60
l0 -35 -70 0 c-62 0 -70 -2 -70 -19 0 -31 29 -46 82 -44 42 2 49 0 46 -15 -2
-13 -16 -18 -61 -20 -52 -3 -60 0 -87 27 -24 23 -30 38 -30 71 0 46 21 94 47
109 34 20 92 13 118 -14z"/>
<path d="M990 655 c0 -46 3 -55 18 -55 45 1 66 56 33 89 -37 37 -51 28 -51
-34z"/>
<path d="M1901 656 c-18 -21 -9 -51 14 -51 15 0 20 7 20 29 0 33 -16 44 -34
22z"/>
<path d="M1147 663 c-12 -12 -7 -61 7 -66 29 -11 48 37 24 61 -14 14 -22 15
-31 5z"/>
<path d="M1647 664 c-12 -12 -8 -51 6 -62 20 -17 39 2 35 34 -3 27 -26 43 -41
28z"/>
<path d="M1775 620 c-11 -17 5 -32 21 -19 8 6 14 15 14 20 0 12 -27 11 -35 -1z"/>
<path d="M2094 646 c-7 -30 11 -57 32 -49 21 8 14 67 -8 71 -12 2 -19 -5 -24
-22z"/>
<path d="M2647 663 c-13 -12 -7 -23 13 -23 11 0 20 7 20 15 0 15 -21 21 -33 8z"/>
<path d="M1039 355 l-16 -55 37 0 37 0 -16 55 c-9 30 -18 55 -21 55 -3 0 -12
-25 -21 -55z"/>
<path d="M1296 335 c-10 -10 -16 -33 -16 -60 0 -36 5 -48 25 -61 23 -15 27
-15 49 0 50 32 39 128 -15 134 -15 2 -34 -4 -43 -13z"/>
<path d="M1540 331 c-5 -11 -10 -38 -10 -60 0 -32 5 -44 25 -57 23 -15 27 -15
49 -1 30 20 38 62 21 104 -11 27 -20 33 -44 33 -20 0 -34 -7 -41 -19z"/>
<path d="M2240 353 c-26 -9 -40 -35 -40 -75 0 -39 27 -78 54 -78 36 0 66 64
50 108 -11 29 -43 52 -64 45z"/>
<path d="M2607 342 c-28 -31 -21 -42 28 -42 37 0 45 3 45 18 0 41 -45 55 -73
24z"/>
</g>
</svg>
