<?xml version="1.0" standalone="no"?>
<!DOCTYPE svg PUBLIC "-//W3C//DTD SVG 20010904//EN"
 "http://www.w3.org/TR/2001/REC-SVG-20010904/DTD/svg10.dtd">
<svg version="1.0" xmlns="http://www.w3.org/2000/svg"
 width="300.000000pt" height="88.000000pt" viewBox="0 0 300.000000 88.000000"
 preserveAspectRatio="xMidYMid meet">

<g transform="translate(0.000000,88.000000) scale(0.100000,-0.100000)"
fill="#000000" stroke="none">
<path d="M46 834 l-26 -27 0 -367 0 -367 26 -27 27 -26 1429 0 1429 0 24 25
25 24 0 371 0 371 -25 24 -24 25 -1429 0 -1429 0 -27 -26z m980 -119 c18 -14
16 -15 -19 -9 -24 4 -43 2 -52 -6 -18 -15 -20 -61 -3 -78 19 -19 66 -15 78 8
9 18 8 20 -15 20 -14 0 -25 5 -25 11 0 13 62 7 67 -7 2 -6 -6 -23 -17 -37 -26
-33 -65 -35 -97 -5 -29 27 -29 65 -1 95 25 27 56 30 84 8z m129 5 c4 -6 -7
-10 -24 -10 -24 0 -31 -4 -31 -20 0 -15 7 -20 25 -20 14 0 25 -4 25 -10 0 -5
-11 -10 -25 -10 -18 0 -25 -5 -25 -20 0 -16 7 -20 30 -20 17 0 30 -4 30 -10 0
-5 -18 -10 -40 -10 l-40 0 0 70 0 70 34 0 c19 0 38 -4 41 -10z m110 0 c3 -5
-3 -10 -14 -10 -19 0 -21 -6 -21 -60 0 -33 -4 -60 -10 -60 -6 0 -10 27 -10 60
0 54 -2 60 -21 60 -11 0 -17 5 -14 10 3 6 24 10 45 10 21 0 42 -4 45 -10z m85
-60 c0 -40 -4 -70 -10 -70 -11 0 -14 123 -3 133 12 13 13 7 13 -63z m110 60
c0 -5 -7 -10 -15 -10 -11 0 -15 -13 -15 -54 0 -30 -4 -58 -10 -61 -6 -4 -10
17 -10 54 0 54 -2 61 -20 61 -11 0 -20 5 -20 10 0 6 20 10 45 10 25 0 45 -4
45 -10z m175 -15 c14 -13 25 -33 25 -45 0 -29 -44 -70 -75 -70 -34 0 -65 33
-65 70 0 64 70 91 115 45z m93 -20 c15 -25 29 -45 32 -45 3 0 4 17 2 39 -2 21
1 42 7 45 8 5 11 -15 11 -63 0 -39 -3 -71 -8 -71 -4 0 -22 24 -39 53 l-32 52
-1 -52 c0 -29 -4 -53 -10 -53 -6 0 -10 30 -10 70 0 41 4 70 10 70 6 0 23 -20
38 -45z m-1236 -90 c122 -69 229 -132 237 -140 13 -13 13 -17 -2 -32 -9 -10
-41 -31 -72 -48 l-55 -29 -46 46 -47 46 -136 -133 c-75 -74 -137 -133 -138
-132 -6 7 -6 525 0 535 5 6 14 12 22 12 8 0 114 -56 237 -125z m647 -112 c21
-14 22 -16 7 -31 -12 -13 -19 -13 -28 -4 -7 7 -32 12 -56 12 -114 0 -143 -151
-37 -196 46 -19 100 -3 120 36 l16 30 -51 0 c-43 0 -50 3 -50 20 0 18 7 20 71
20 l72 0 -6 -41 c-10 -78 -90 -130 -169 -109 -84 23 -133 102 -110 178 27 90
141 134 221 85z m739 -126 c2 -132 2 -137 -18 -137 -19 0 -20 6 -20 141 0 128
2 140 18 137 15 -3 17 -19 20 -141z m448 112 c17 -16 24 -33 24 -59 0 -49 -34
-81 -94 -87 l-45 -5 -3 -47 c-3 -39 -6 -46 -25 -49 -23 -3 -23 -3 -23 131 0
73 3 137 8 141 4 5 35 6 70 3 48 -4 69 -10 88 -28z m92 -112 c2 -132 2 -137
-18 -137 -19 0 -20 6 -20 141 0 128 2 140 18 137 15 -3 17 -19 20 -141z
m-1044 17 c46 -47 32 -124 -27 -149 -67 -28 -132 14 -132 87 0 80 101 120 159
62z m207 -3 c70 -71 -2 -182 -98 -150 -36 12 -63 52 -63 94 0 40 50 85 95 85
27 0 44 -8 66 -29z m227 -83 c-3 -106 -4 -111 -31 -134 -36 -31 -78 -31 -114
0 -22 20 -25 27 -16 37 10 10 16 9 31 -4 28 -26 70 -22 84 8 14 31 6 40 -21
26 -26 -14 -84 8 -100 37 -20 37 -13 87 15 115 23 23 34 26 91 25 l65 -1 -4
-109z m237 87 c31 -30 31 -43 3 -54 -97 -37 -103 -41 -85 -58 15 -15 21 -15
52 -4 43 15 63 6 40 -19 -34 -38 -120 -27 -144 18 -50 93 62 190 134 117z
m535 5 c16 -16 20 -33 20 -90 l0 -69 -37 -1 c-21 0 -48 -1 -61 -1 -13 -1 -32
7 -43 17 -44 40 -7 99 62 99 22 0 38 4 36 10 -2 5 -24 10 -50 10 -54 0 -69 11
-43 31 29 21 92 18 116 -6z m95 -37 c11 -29 23 -53 26 -53 4 0 15 24 26 53 15
38 26 53 42 55 11 2 21 -1 21 -7 0 -5 -24 -64 -52 -130 -45 -102 -56 -121 -75
-121 l-22 0 19 45 19 45 -34 79 c-19 44 -35 82 -35 86 0 3 10 5 22 3 17 -2 28
-17 43 -55z"/>
<path d="M1551 696 c-16 -19 -10 -66 10 -79 26 -16 68 0 75 29 12 47 -55 87
-85 50z"/>
<path d="M2210 410 l0 -50 34 0 c61 0 88 53 44 84 -12 9 -35 16 -50 16 -27 0
-28 -2 -28 -50z"/>
<path d="M1272 348 c-29 -29 -3 -98 37 -98 22 0 51 31 51 54 0 48 -56 76 -88
44z"/>
<path d="M1475 340 c-37 -41 11 -104 61 -81 50 23 34 101 -21 101 -12 0 -30
-9 -40 -20z"/>
<path d="M1680 341 c-5 -11 -10 -28 -10 -39 0 -22 30 -52 52 -52 37 0 64 70
36 98 -19 19 -66 15 -78 -7z"/>
<path d="M1952 348 c-27 -27 -13 -37 28 -21 22 9 40 20 40 25 0 12 -54 10 -68
-4z"/>
<path d="M2487 286 c-3 -8 1 -20 9 -27 18 -15 64 3 64 26 0 20 -66 21 -73 1z"/>
</g>
</svg>
