<?xml version="1.0" standalone="no"?>
<!DOCTYPE svg PUBLIC "-//W3C//DTD SVG 20010904//EN"
 "http://www.w3.org/TR/2001/REC-SVG-20010904/DTD/svg10.dtd">
<svg version="1.0" xmlns="http://www.w3.org/2000/svg"
 width="300.000000pt" height="78.000000pt" viewBox="0 0 300.000000 78.000000"
 preserveAspectRatio="xMidYMid meet">

<g transform="translate(0.000000,78.000000) scale(0.100000,-0.100000)"
fill="#000000" stroke="none">
<path d="M0 390 l0 -390 1500 0 1500 0 0 390 0 390 -1500 0 -1500 0 0 -390z
m387 294 c15 -4 26 -18 33 -43 13 -46 13 -81 0 -81 -5 0 -10 17 -10 38 0 55
-19 77 -60 68 -53 -10 -70 -32 -70 -88 0 -26 -4 -48 -10 -48 -14 0 -12 80 3
110 7 14 28 30 47 37 42 14 40 14 67 7z m100 -84 c1 -33 1 -33 -5 -6 -4 16
-16 33 -27 37 -18 8 -17 8 5 6 21 -2 25 -7 27 -37z m913 -40 c0 -47 -4 -80
-10 -80 -6 0 -10 33 -10 80 0 47 4 80 10 80 6 0 10 -33 10 -80z m370 1 l0 -79
-47 2 -48 1 -3 38 c-4 48 13 70 50 65 25 -4 28 -2 28 24 0 15 5 28 10 28 6 0
10 -33 10 -79z m128 68 c-21 -12 -24 -35 -5 -43 10 -5 10 -7 0 -12 -8 -3 -13
-24 -13 -50 0 -24 -4 -44 -10 -44 -5 0 -10 20 -10 44 0 26 -5 47 -12 50 -10 5
-10 7 0 12 6 3 12 14 12 23 0 23 9 31 34 31 19 -1 19 -2 4 -11z m-1517 -23
c-7 -8 -16 -27 -21 -43 -8 -27 -8 -27 -9 9 -1 25 4 40 16 47 23 12 29 6 14
-13z m537 8 c16 -11 22 -25 22 -51 0 -51 -32 -83 -82 -83 l-38 0 0 75 0 75 38
0 c21 0 48 -7 60 -16z m136 -40 c35 -34 10 -96 -39 -96 -49 0 -72 56 -38 94
20 22 56 23 77 2z m59 -26 l14 -43 13 43 c7 23 17 42 21 42 5 0 14 -19 20 -42
l12 -43 11 37 c22 74 34 60 15 -18 -14 -53 -36 -58 -45 -9 -3 19 -10 35 -14
35 -4 0 -11 -16 -14 -35 -4 -21 -13 -35 -21 -35 -8 0 -15 3 -15 8 0 4 -7 28
-15 55 -18 58 -2 63 18 5z m224 31 c15 -13 18 -99 3 -99 -5 0 -10 17 -10 39 0
21 -6 43 -13 49 -22 19 -41 -4 -41 -47 0 -23 -3 -41 -8 -41 -4 0 -8 24 -8 53
0 51 0 52 32 54 17 1 38 -2 45 -8z m190 -15 c15 -24 15 -29 2 -53 -16 -29 -61
-40 -85 -20 -17 14 -19 70 -2 87 22 22 66 14 85 -14z m111 -30 l3 -51 -40 -1
c-62 -3 -66 47 -6 62 35 9 31 26 -6 26 -19 0 -28 4 -24 11 4 5 21 9 38 7 31
-3 32 -5 35 -54z m342 45 c0 -5 -6 -9 -14 -9 -17 0 -26 -22 -26 -61 0 -16 -4
-29 -10 -29 -5 0 -10 24 -10 53 0 53 1 54 30 55 17 0 30 -4 30 -9z m102 -6
c37 -34 15 -93 -35 -93 -40 0 -57 15 -57 51 0 52 54 77 92 42z m196 -40 c2
-32 -1 -53 -7 -53 -6 0 -11 20 -11 46 0 41 -2 45 -22 42 -19 -2 -24 -10 -26
-45 -4 -57 -22 -55 -22 2 0 37 -3 45 -19 45 -21 0 -31 -19 -31 -61 0 -16 -4
-29 -10 -29 -10 0 -15 92 -6 101 3 3 38 4 78 4 l73 0 3 -52z m-1648 14 l25
-12 0 -205 0 -204 -44 -17 c-42 -15 -48 -15 -250 26 l-206 41 -3 155 -2 155
202 41 c201 41 229 43 278 20z m880 -277 c0 -100 -2 -120 -15 -120 -8 0 -15 5
-15 12 0 9 -3 9 -12 0 -19 -19 -73 -14 -93 8 -11 12 -18 35 -18 62 0 33 6 47
27 65 30 25 47 28 77 13 17 -10 19 -7 19 35 0 33 4 45 15 45 13 0 15 -20 15
-120z m-654 21 c26 -93 30 -101 37 -74 41 140 49 163 61 163 9 0 22 -33 37
-90 13 -49 26 -86 30 -82 5 7 15 38 39 130 7 27 16 42 26 42 9 0 14 -6 12 -12
-3 -7 -18 -59 -33 -115 -22 -80 -32 -103 -46 -103 -13 0 -22 20 -39 85 -13 46
-27 82 -31 79 -5 -3 -9 -10 -9 -16 0 -6 -9 -42 -21 -80 -24 -82 -44 -88 -65
-18 -51 169 -54 181 -37 178 11 -2 24 -30 39 -87z m294 74 c0 -8 -7 -15 -15
-15 -8 0 -15 7 -15 15 0 8 7 15 15 15 8 0 15 -7 15 -15z m1130 0 c0 -11 -8
-13 -30 -9 -66 14 -81 -43 -20 -81 50 -32 66 -59 51 -91 -17 -38 -112 -48
-119 -12 -3 15 0 15 28 5 22 -8 35 -9 48 -1 32 21 25 42 -27 79 -56 40 -66 72
-34 107 21 23 103 26 103 3z m72 -27 c2 -15 11 -24 26 -26 26 -4 20 -22 -9
-22 -16 0 -19 -7 -19 -44 0 -58 8 -76 33 -76 15 0 18 -3 10 -11 -6 -6 -21 -9
-34 -7 -22 3 -24 8 -27 71 -2 51 -6 67 -17 67 -20 0 -19 16 0 24 8 3 15 15 15
26 0 27 18 26 22 -2z m-1048 -34 c18 -18 23 -154 6 -154 -5 0 -10 24 -10 54 0
73 -6 86 -41 86 -35 0 -49 -27 -49 -96 0 -24 -4 -44 -10 -44 -6 0 -10 34 -10
81 0 72 2 80 18 75 9 -3 24 -1 32 4 22 14 47 12 64 -6z m371 -9 c31 -30 33
-82 4 -119 -27 -34 -88 -37 -119 -4 -22 24 -27 77 -9 109 22 43 89 50 124 14z
m359 19 c24 -9 19 -26 -6 -24 -13 1 -29 2 -36 1 -23 -2 -8 -34 23 -51 32 -18
44 -52 25 -76 -17 -19 -90 -19 -90 0 0 11 9 13 35 9 31 -5 35 -3 35 16 0 12
-8 24 -17 28 -53 18 -68 61 -31 87 24 17 38 19 62 10z m499 -3 c47 -18 59
-100 20 -143 -21 -24 -84 -23 -113 0 -34 28 -32 98 4 129 29 25 51 28 89 14z
m157 -6 c0 -8 -9 -15 -20 -15 -27 0 -40 -29 -40 -89 0 -39 -4 -51 -15 -51 -12
0 -15 16 -15 80 0 64 3 80 15 80 8 0 15 -5 15 -12 0 -8 6 -6 17 5 21 21 43 22
43 2z m135 -10 c14 -13 25 -33 25 -45 0 -18 -6 -20 -54 -20 -63 0 -72 -7 -49
-40 13 -19 22 -21 55 -17 27 4 38 2 35 -6 -2 -7 -24 -13 -48 -15 -58 -4 -82
20 -82 80 0 33 6 47 27 65 35 30 61 29 91 -2z m-1675 -65 c0 -64 -3 -80 -15
-80 -12 0 -15 16 -15 80 0 64 3 80 15 80 12 0 15 -16 15 -80z m608 18 l19 -63
18 63 c23 81 42 80 65 -3 l17 -60 18 63 c11 37 23 62 31 62 8 0 14 -1 14 -2 0
-2 -11 -37 -24 -78 -31 -97 -47 -101 -71 -18 l-18 63 -20 -62 c-12 -35 -26
-63 -33 -63 -7 0 -20 24 -29 53 -9 28 -20 64 -25 80 -7 21 -6 27 5 27 9 0 22
-24 33 -62z"/>
<path d="M1690 551 c-12 -24 2 -61 24 -61 21 0 38 26 34 52 -4 31 -43 37 -58
9z"/>
<path d="M840 557 l0 -64 28 5 c40 7 52 20 52 57 0 36 -12 50 -53 60 l-27 7 0
-65z"/>
<path d="M995 567 c-20 -16 -17 -56 7 -70 12 -8 21 -7 32 2 38 32 1 96 -39 68z"/>
<path d="M1465 566 c-25 -18 -17 -70 12 -74 40 -6 56 67 19 81 -8 3 -22 0 -31
-7z"/>
<path d="M1574 519 c-9 -15 12 -33 30 -26 9 4 16 13 16 22 0 17 -35 21 -46 4z"/>
<path d="M2025 567 c-20 -16 -17 -56 7 -70 12 -8 21 -7 32 2 38 32 1 96 -39
68z"/>
<path d="M373 433 c-20 -4 -23 -11 -23 -46 l0 -42 55 0 55 0 0 48 c0 47 0 47
-32 46 -18 -1 -43 -4 -55 -6z"/>
<path d="M278 423 c-36 -4 -38 -6 -38 -38 0 -32 1 -33 45 -37 l45 -3 0 42 c0
24 -3 42 -7 41 -5 -1 -25 -3 -45 -5z"/>
<path d="M240 290 c0 -38 2 -40 29 -40 16 0 36 -3 45 -6 13 -5 16 2 16 40 l0
46 -45 0 -45 0 0 -40z"/>
<path d="M350 286 c0 -41 2 -44 31 -50 73 -14 79 -11 79 44 l0 50 -55 0 -55 0
0 -44z"/>
<path d="M1413 290 c-29 -12 -40 -63 -19 -95 32 -49 89 -20 84 43 -4 41 -32
64 -65 52z"/>
<path d="M1600 287 c-21 -11 -25 -20 -25 -57 0 -40 3 -46 28 -54 42 -15 62 2
62 54 0 54 -26 76 -65 57z"/>
<path d="M2473 289 c-48 -18 -36 -110 16 -117 30 -5 61 25 61 58 0 47 -36 74
-77 59z"/>
<path d="M2740 270 c-10 -19 -8 -20 36 -20 38 0 45 3 40 16 -3 9 -6 18 -6 20
0 2 -13 4 -30 4 -19 0 -33 -7 -40 -20z"/>
</g>
</svg>
